<svg id="Capa_1" data-name="Capa 1" xmlns="http://www.w3.org/2000/svg" viewBox="0 0 560.47 824.2"><defs><style>.ventanita-tangerine3{fill:none;stroke:#ffc7b7;stroke-linecap:round;stroke-linejoin:round;stroke-width:5px}</style></defs><path d="M517.47 19.8H247.33h188.62H42.99c-12.7 0-23 10.3-23 23v38.3h415.95-188.62 293.15V42.8c0-12.7-10.3-23-23-23Z" style="stroke-width:0;fill:#00274e"/><path d="M430.67 81.09H105.96h86.23H20v700.32c0 12.7 10.3 23 23 23h190.16-99.57 344.3-37.21 76.79c12.7 0 23-10.3 23-23V81.09H430.66Z" style="fill:#fff;stroke-width:0"/><path class="ventanita-tangerine3" d="M19.99 81.1h415.96-188.62 293.14"/><circle class="ventanita-tangerine3" cx="53.71" cy="49.72" r="10.57"/><circle class="ventanita-tangerine3" cx="90.8" cy="49.72" r="10.57"/><circle class="ventanita-tangerine3" cx="127.47" cy="49.72" r="10.57"/><path class="ventanita-tangerine3" d="m501.55 40.42 16.8 16.81m0-16.81-16.8 16.81"/></svg>