<?xml version="1.0" encoding="UTF-8"?>
<svg id="Capa_1" data-name="Capa 1" xmlns="http://www.w3.org/2000/svg" viewBox="0 0 188.61 239.65">
  <defs>
    <style>
      .cls-1 {
        fill: #fff;
        stroke-width: 0px;
      }
    </style>
  </defs>
  <path class="cls-1" d="m73.69,14.46c-9.76,38.91-21.42,50.57-60.33,60.33-4.02,1.01-4.02,6.65,0,7.66,38.91,9.76,50.57,21.42,60.33,60.33,1.01,4.02,6.65,4.02,7.66,0,9.76-38.91,21.42-50.57,60.33-60.33,4.02-1.01,4.02-6.65,0-7.66-38.91-9.76-50.57-21.42-60.33-60.33-1.01-4.02-6.65-4.02-7.66,0Z"/>
  <path class="cls-1" d="m142.6,162.26c-4.9,19.54-10.75,25.39-30.29,30.29-2.02.51-2.02,3.34,0,3.85,19.54,4.9,25.39,10.75,30.29,30.29.51,2.02,3.34,2.02,3.85,0,4.9-19.54,10.75-25.39,30.29-30.29,2.02-.51,2.02-3.34,0-3.85-19.54-4.9-25.39-10.75-30.29-30.29-.51-2.02-3.34-2.02-3.85,0Z"/>
</svg>