<?xml version="1.0" encoding="UTF-8"?>
<svg id="Capa_1" data-name="Capa 1" xmlns="http://www.w3.org/2000/svg" viewBox="0 0 104.91 104.91">
  <defs>
    <style>
      .instagram-icon {
        fill: #ffc6b6;
        stroke-width: 0px;
      }
    </style>
  </defs>
  <path class="instagram-icon" d="m6.18,52.3C5.51,29.23,24.62,6.02,52.47,6.09c26.21.07,46.32,20.69,46.28,46.37-.04,27.88-23.26,47.25-48.16,46.32-24.34-.9-45.14-21.75-44.42-46.48Zm19.54-.22c0,3.82-.08,7.64.02,11.45.2,7.91,5.67,14.31,13.49,15.23,8.27.98,16.65.86,24.92.17,9.61-.79,14.97-7.36,14.98-16.97,0-6.72.04-13.44,0-20.16-.07-9.09-6.84-15.93-15.94-16.04-7.25-.09-14.51-.09-21.76,0-8.88.11-15.54,6.84-15.7,15.76-.06,3.51,0,7.02,0,10.54Z"/>
  <path class="instagram-icon" d="m52.33,74.45c-3.51,0-7.02.02-10.54,0-6.42-.05-11.45-4.75-11.58-11.14-.15-7.33-.16-14.66,0-21.99.14-6.24,5.21-11.04,11.46-11.08,7.1-.05,14.2-.05,21.3,0,6.39.05,11.44,4.79,11.6,11.2.19,7.25.19,14.51,0,21.76-.18,6.64-5.11,11.21-11.71,11.25-3.51.02-7.02,0-10.54,0Zm.17-34.96c-7.25.01-13.01,5.77-12.92,12.92.09,7.19,5.83,12.93,13,12.99,7.18.06,12.9-5.66,12.92-12.93.03-7.48-5.49-12.99-13-12.98Zm11.33-1.37c-.02,1.53,1.41,3.08,2.87,2.94,1.61-.16,2.74-1.08,2.77-2.77.03-1.64-.82-2.74-2.59-2.84-1.7-.1-3.02,1.08-3.04,2.68Z"/>
  <path class="instagram-icon" d="m52.63,61.1c-4.86,0-8.75-3.87-8.77-8.7-.02-4.71,4.02-8.8,8.72-8.84,4.65-.04,8.81,4.1,8.82,8.77,0,4.7-4.06,8.77-8.77,8.77Z"/>
</svg>