<?xml version="1.0" encoding="UTF-8"?>
<svg id="Capa_1" data-name="Capa 1" xmlns="http://www.w3.org/2000/svg" xmlns:xlink="http://www.w3.org/1999/xlink" viewBox="0 0 104.91 104.91">
  <defs>
    <style>
      .youtube-icon-1 {
        opacity: .98;
      }

      .youtube-icon-2 {
        fill: none;
      }

      .youtube-icon-2, .youtube-icon-3 {
        stroke-width: 0px;
      }

      .youtube-icon-4 {
        clip-path: url(#clippath);
      }

      .youtube-icon-3 {
        fill: #ffc6b6;
      }
    </style>
    <clipPath id="clippath">
      <path class="youtube-icon-2" d="m771.71,203.16H145.92h86.23H59.97v465.28c0,12.7,10.3,23,23,23h190.16-99.57,645.38-37.21,76.79c12.7,0,23-10.3,23-23V203.16h-109.81Z"/>
    </clipPath>
  </defs>
  <g class="youtube-icon-1">
    <g class="youtube-icon-4">
      <image width="1080" height="1080" transform="translate(-30.24 -88.01) scale(.93)" xlink:href="../ventanitas-costumes-1.png"/>
    </g>
  </g>
  <g>
    <path class="youtube-icon-3" d="m52.41,6.08c23.88-.07,46.28,18.54,46.38,46.28.1,27.16-21.82,46.49-46.43,46.46-25.58-.03-45.86-20.62-46.23-46.17C5.78,28.44,25.76,6.05,52.41,6.08Zm-.46,29c-4.73,0-9.46-.05-14.19.01-6.15.07-10.53,4.36-10.66,10.5-.1,4.35-.08,8.7-.02,13.05.1,6.47,4.21,10.88,10.69,11.01,9.38.18,18.77.18,28.15,0,6.31-.12,10.43-4.13,10.83-10.46.29-4.56.31-9.17-.03-13.72-.49-6.74-4.71-10.37-11.49-10.38-4.43-.01-8.85,0-13.28,0Z"/>
    <path class="youtube-icon-3" d="m47.44,45.13c.39.16.98.35,1.5.63,3.43,1.84,6.85,3.7,10.26,5.57.65.36,1.48.66,1.45,1.59-.03.84-.84,1.02-1.43,1.31-3.42,1.69-6.83,3.4-10.28,5.02-2.61,1.22-3.58.6-3.61-2.19-.03-3.21,0-6.41,0-9.62,0-1.32.44-2.24,2.12-2.32Z"/>
  </g>
</svg>