<?xml version="1.0" encoding="UTF-8"?>
<svg id="Capa_1" data-name="Capa 1" xmlns="http://www.w3.org/2000/svg" viewBox="0 0 366.83 119.39">
  <defs>
    <style>
      .cls-1 {
        fill: #fb752d;
      }

      .cls-1, .cls-2, .cls-3 {
        stroke-width: 0px;
      }

      .cls-2 {
        fill: #00274e;
      }

      .cls-3 {
        fill: #ffc6b6;
      }
    </style>
  </defs>
  <path class="cls-1" d="m78.17,56c-10.73,0-19.43,8.7-19.43,19.44s8.7,19.44,19.43,19.44,19.43-8.7,19.43-19.44-8.7-19.44-19.43-19.44"/>
  <path class="cls-2" d="m22.92,20.28h0c0,16.93,13.73,30.66,30.66,30.66h43.9c0-16.93-13.73-30.66-30.66-30.66H22.92Z"/>
  <path class="cls-3" d="m23.82,60.84c-2.6,3.24-4.16,7.36-4.16,11.84,0,10.44,8.47,18.91,18.91,18.91,5.04,0,9.62-1.97,13-5.18,1.97-1.87,1.18-10.88-7.33-19.4-7.56-7.56-18.83-8.14-20.42-6.16"/>
  <polygon class="cls-2" points="122.01 60.6 122.01 33.04 111.23 33.04 111.23 26.98 139.79 26.98 139.79 33.04 129.01 33.04 129.01 60.6 122.01 60.6"/>
  <path class="cls-2" d="m149.22,61.2c-3.64,0-6.54-1.32-8.69-3.97-2.15-2.65-3.23-5.93-3.23-9.83s1.08-7.13,3.23-9.78c2.15-2.65,5.05-3.97,8.69-3.97,1.72,0,3.33.36,4.82,1.09,1.49.73,2.65,1.77,3.48,3.13v-3.63h6.6v26.37h-6.6v-3.63c-.83,1.36-1.99,2.4-3.48,3.13-1.49.73-3.1,1.09-4.82,1.09m1.54-5.91c2.12,0,3.82-.76,5.09-2.28,1.27-1.52,1.91-3.39,1.91-5.61s-.65-4.08-1.94-5.59c-1.29-1.51-2.98-2.26-5.07-2.26s-3.75.75-4.99,2.26c-1.24,1.51-1.86,3.37-1.86,5.59s.62,4.13,1.86,5.64c1.24,1.51,2.91,2.26,4.99,2.26"/>
  <path class="cls-2" d="m169.29,60.6v-26.37h6.61v3.43c1.69-2.75,4.35-4.12,8-4.12,2.75,0,4.99.86,6.73,2.58,1.74,1.72,2.61,3.96,2.61,6.7v17.78h-6.6v-15.54c0-1.75-.44-3.13-1.32-4.12-.88-.99-2.16-1.49-3.85-1.49s-3.04.51-4.05,1.54c-1.01,1.03-1.51,2.38-1.51,4.07v15.54h-6.61Z"/>
  <path class="cls-2" d="m208.67,69.04c-4.14,0-7.55-.84-10.23-2.53v-5.96h.35c2.75,1.89,6.03,2.83,9.83,2.83,2.25,0,3.99-.57,5.21-1.71,1.22-1.14,1.84-2.82,1.84-5.04v-1.99c-1.76,2.52-4.3,3.77-7.65,3.77s-6.08-1.17-8.12-3.53c-2.04-2.35-3.05-5.3-3.05-8.84s1.02-6.5,3.05-8.87c2.04-2.37,4.74-3.55,8.12-3.55s5.99,1.21,7.65,3.63v-3.03h6.6v21.7c0,4.3-1.18,7.56-3.53,9.78-2.35,2.22-5.71,3.33-10.08,3.33m.94-16.34c1.85,0,3.37-.63,4.54-1.89,1.18-1.26,1.76-2.85,1.76-4.77s-.59-3.46-1.76-4.72c-1.18-1.26-2.69-1.89-4.54-1.89s-3.34.62-4.47,1.86c-1.13,1.24-1.69,2.82-1.69,4.74s.55,3.55,1.66,4.79c1.11,1.24,2.61,1.86,4.49,1.86"/>
  <path class="cls-2" d="m239.91,61.3c-4.2,0-7.55-1.26-10.03-3.77-2.48-2.52-3.72-5.89-3.72-10.13s1.22-7.4,3.65-9.98c2.43-2.58,5.64-3.87,9.61-3.87s6.8,1.24,8.89,3.72c2.09,2.48,3.13,5.78,3.13,9.88,0,.79-.07,1.62-.2,2.48h-18.33c.13,1.89.95,3.34,2.46,4.37,1.51,1.03,3.32,1.54,5.44,1.54,3.51,0,6.62-.86,9.34-2.58h.35v5.96c-2.95,1.59-6.47,2.38-10.58,2.38m-7.05-16.49h12.12c0-1.79-.48-3.19-1.44-4.22-.96-1.03-2.33-1.54-4.12-1.54-1.89,0-3.41.5-4.57,1.49-1.16.99-1.82,2.42-1.99,4.27"/>
  <path class="cls-2" d="m255.4,60.6v-26.37h6.61v3.87c1.52-2.98,3.79-4.47,6.8-4.47.93,0,1.7.2,2.33.6v5.51h-.35c-.5-.16-1.16-.25-1.99-.25-2.12,0-3.78.7-4.99,2.11-1.21,1.41-1.81,3.22-1.81,5.44v13.56h-6.61Z"/>
  <path class="cls-2" d="m280.53,31.2c-.76.73-1.72,1.09-2.88,1.09s-2.12-.36-2.88-1.09c-.76-.73-1.14-1.66-1.14-2.78s.38-2.04,1.14-2.76c.76-.71,1.72-1.07,2.88-1.07s2.12.36,2.88,1.07c.76.71,1.14,1.63,1.14,2.76s-.38,2.05-1.14,2.78m-6.16,3.03h6.61v26.37h-6.61v-26.37Z"/>
  <path class="cls-2" d="m286.09,60.6v-26.37h6.61v3.43c1.69-2.75,4.35-4.12,8-4.12,2.75,0,4.99.86,6.73,2.58,1.74,1.72,2.61,3.96,2.61,6.7v17.78h-6.61v-15.54c0-1.75-.44-3.13-1.32-4.12-.88-.99-2.16-1.49-3.85-1.49s-3.04.51-4.05,1.54c-1.01,1.03-1.51,2.38-1.51,4.07v15.54h-6.61Z"/>
  <path class="cls-2" d="m327.41,61.3c-4.2,0-7.55-1.26-10.03-3.77-2.48-2.52-3.72-5.89-3.72-10.13s1.22-7.4,3.65-9.98c2.43-2.58,5.64-3.87,9.61-3.87s6.8,1.24,8.89,3.72c2.09,2.48,3.13,5.78,3.13,9.88,0,.79-.07,1.62-.2,2.48h-18.33c.13,1.89.95,3.34,2.46,4.37,1.51,1.03,3.32,1.54,5.44,1.54,3.51,0,6.62-.86,9.34-2.58h.35v5.96c-2.95,1.59-6.47,2.38-10.58,2.38m-7.05-16.49h12.12c0-1.79-.48-3.19-1.44-4.22-.96-1.03-2.33-1.54-4.12-1.54-1.89,0-3.41.5-4.57,1.49-1.16.99-1.82,2.42-1.99,4.27"/>
  <polygon class="cls-2" points="119.84 86.55 119.84 88.12 112.12 88.12 112.12 76.86 119.7 76.86 119.7 78.43 113.91 78.43 113.91 81.65 118.94 81.65 118.94 83.11 113.91 83.11 113.91 86.55 119.84 86.55"/>
  <polygon class="cls-2" points="130.45 80.16 130.45 88.12 128.66 88.12 128.66 76.86 130.12 76.86 136.5 84.99 136.5 76.87 138.27 76.87 138.27 88.12 136.73 88.12 130.45 80.16"/>
  <path class="cls-2" d="m152.4,88.2c-.74,0-1.43-.15-2.08-.46-.65-.31-1.21-.73-1.69-1.26-.48-.53-.86-1.15-1.13-1.84-.27-.69-.4-1.43-.4-2.2s.13-1.5.4-2.17c.27-.68.64-1.28,1.13-1.8.48-.52,1.05-.94,1.7-1.24.65-.3,1.36-.45,2.12-.45,1.08,0,1.99.22,2.72.67s1.29,1.04,1.66,1.78l-1.36.98c-.31-.61-.73-1.07-1.27-1.38-.54-.31-1.13-.46-1.78-.46-.54,0-1.02.11-1.45.33-.43.22-.8.53-1.1.91-.31.39-.54.82-.71,1.32-.16.49-.25,1.01-.25,1.55,0,.57.09,1.1.27,1.6.18.5.43.93.76,1.31.33.37.71.67,1.16.88.44.21.92.32,1.43.32.62,0,1.21-.16,1.77-.47.56-.31,1.08-.78,1.56-1.4v1.81c-.98,1.11-2.14,1.67-3.46,1.67m3.27-4.46h-2.35v-1.33h3.85v5.71h-1.51v-4.38Z"/>
  <polygon class="cls-2" points="166.19 88.12 166.19 76.86 167.98 76.86 167.98 86.55 174 86.55 174 88.12 166.19 88.12"/>
  <rect class="cls-2" x="182.43" y="76.86" width="1.79" height="11.26"/>
  <path class="cls-2" d="m200.38,79.51c-.1-.12-.25-.24-.45-.37-.21-.13-.44-.25-.71-.36-.27-.11-.57-.21-.89-.29-.32-.08-.65-.12-.99-.12-.74,0-1.29.14-1.65.41-.36.27-.54.65-.54,1.14,0,.36.1.64.3.85.2.21.51.38.93.51.42.13.93.27,1.55.42.77.18,1.44.4,1.99.65.56.25.98.58,1.28.99.3.41.45.96.45,1.64,0,.56-.11,1.04-.33,1.45-.22.41-.52.74-.9,1-.38.26-.82.45-1.32.58-.5.13-1.03.19-1.6.19s-1.12-.06-1.67-.18c-.56-.12-1.08-.3-1.59-.52-.5-.23-.97-.5-1.4-.83l.82-1.52c.13.14.32.29.59.45.26.16.57.32.91.47.34.15.72.27,1.13.37s.82.15,1.25.15c.71,0,1.25-.12,1.63-.37.37-.25.56-.6.56-1.08,0-.37-.12-.67-.37-.89-.25-.23-.6-.42-1.06-.58-.46-.16-1.01-.32-1.66-.47-.74-.19-1.36-.41-1.86-.65-.5-.24-.87-.55-1.11-.92-.24-.37-.37-.85-.37-1.44,0-.74.18-1.36.53-1.87.35-.51.84-.9,1.47-1.15.62-.26,1.32-.39,2.08-.39.51,0,.99.06,1.45.17.46.11.89.26,1.28.45.4.19.75.41,1.05.65l-.79,1.46Z"/>
  <polygon class="cls-2" points="219.63 76.86 219.63 88.12 217.86 88.12 217.86 83.15 212.18 83.15 212.18 88.12 210.39 88.12 210.39 76.86 212.18 76.86 212.18 81.57 217.86 81.57 217.86 76.86 219.63 76.86"/>
  <path class="cls-2" d="m246.71,79.51c-.1-.12-.25-.24-.45-.37-.21-.13-.44-.25-.71-.36-.27-.11-.57-.21-.89-.29-.32-.08-.65-.12-.99-.12-.74,0-1.29.14-1.65.41-.36.27-.54.65-.54,1.14,0,.36.1.64.3.85.2.21.51.38.93.51.42.13.93.27,1.55.42.77.18,1.44.4,1.99.65.56.25.98.58,1.28.99.3.41.45.96.45,1.64,0,.56-.11,1.04-.32,1.45-.22.41-.52.74-.9,1-.38.26-.82.45-1.32.58-.5.13-1.03.19-1.6.19s-1.12-.06-1.67-.18c-.55-.12-1.08-.3-1.59-.52-.5-.23-.97-.5-1.4-.83l.82-1.52c.13.14.32.29.59.45.26.16.57.32.91.47.34.15.72.27,1.13.37.41.1.82.15,1.25.15.71,0,1.25-.12,1.63-.37.38-.25.56-.6.56-1.08,0-.37-.12-.67-.37-.89-.25-.23-.6-.42-1.06-.58-.46-.16-1.01-.32-1.66-.47-.74-.19-1.36-.41-1.86-.65-.5-.24-.87-.55-1.11-.92-.24-.37-.37-.85-.37-1.44,0-.74.18-1.36.53-1.87.35-.51.84-.9,1.47-1.15.62-.26,1.32-.39,2.08-.39.51,0,.99.06,1.45.17.46.11.89.26,1.28.45.4.19.75.41,1.05.65l-.79,1.46Z"/>
  <path class="cls-2" d="m256,82.39c0-.69.12-1.36.36-2.02.24-.66.6-1.26,1.07-1.81.47-.54,1.04-.98,1.71-1.3.67-.32,1.43-.48,2.29-.48,1.03,0,1.91.23,2.64.69.73.46,1.28,1.05,1.64,1.77l-1.4.94c-.2-.45-.46-.81-.78-1.08-.32-.26-.67-.45-1.05-.56-.38-.11-.75-.16-1.11-.16-.58,0-1.09.12-1.54.36-.44.24-.82.55-1.12.94-.3.39-.53.83-.67,1.32-.15.49-.22.97-.22,1.46,0,.55.09,1.07.26,1.57.17.5.42.94.75,1.32.32.39.7.69,1.14.91.44.22.92.33,1.45.33.37,0,.75-.06,1.14-.19.39-.13.75-.33,1.09-.6.33-.27.59-.62.78-1.05l1.47.82c-.22.56-.58,1.04-1.07,1.43-.49.39-1.04.69-1.66.89-.61.2-1.22.3-1.82.3-.77,0-1.49-.17-2.14-.5-.66-.33-1.22-.78-1.7-1.33-.48-.56-.85-1.18-1.12-1.87-.26-.69-.4-1.39-.4-2.1"/>
  <polygon class="cls-2" points="283.79 76.86 283.79 88.12 282.01 88.12 282.01 83.15 276.33 83.15 276.33 88.12 274.54 88.12 274.54 76.86 276.33 76.86 276.33 81.57 282.01 81.57 282.01 76.86 283.79 76.86"/>
  <path class="cls-2" d="m297.96,88.2c-.79,0-1.52-.16-2.17-.48-.66-.32-1.22-.75-1.7-1.29-.48-.54-.85-1.16-1.11-1.84-.26-.68-.39-1.38-.39-2.1s.14-1.47.41-2.15c.28-.68.66-1.29,1.15-1.82.49-.53,1.06-.96,1.71-1.27.65-.31,1.37-.47,2.15-.47s1.55.16,2.2.49c.65.33,1.21.77,1.69,1.32.48.55.84,1.16,1.09,1.84.25.68.38,1.37.38,2.09s-.13,1.45-.4,2.13c-.26.68-.64,1.29-1.13,1.82-.49.53-1.06.95-1.71,1.26-.65.31-1.37.46-2.16.46m-3.55-5.71c0,.54.08,1.06.25,1.55.16.49.4.93.71,1.32.31.39.69.69,1.13.91.44.22.94.33,1.5.33s1.08-.12,1.52-.35c.44-.23.82-.55,1.13-.94.31-.4.54-.84.7-1.32.16-.49.24-.98.24-1.49,0-.54-.08-1.05-.25-1.54-.17-.49-.41-.92-.73-1.31-.32-.39-.7-.69-1.13-.91-.44-.22-.93-.33-1.47-.33-.58,0-1.09.12-1.53.35-.44.23-.81.54-1.12.94-.31.39-.54.83-.7,1.32-.16.49-.24.98-.24,1.49"/>
  <path class="cls-2" d="m316.87,88.2c-.79,0-1.52-.16-2.17-.48-.66-.32-1.22-.75-1.71-1.29-.48-.54-.85-1.16-1.11-1.84-.26-.68-.39-1.38-.39-2.1s.14-1.47.41-2.15.66-1.29,1.15-1.82c.49-.53,1.06-.96,1.71-1.27.65-.31,1.37-.47,2.15-.47s1.55.16,2.2.49c.65.33,1.21.77,1.69,1.32.48.55.84,1.16,1.09,1.84.25.68.38,1.37.38,2.09s-.13,1.45-.4,2.13c-.26.68-.64,1.29-1.13,1.82-.49.53-1.06.95-1.71,1.26-.65.31-1.37.46-2.16.46m-3.55-5.71c0,.54.08,1.06.25,1.55.16.49.4.93.71,1.32.31.39.69.69,1.13.91.44.22.94.33,1.5.33s1.08-.12,1.52-.35.82-.55,1.13-.94c.31-.4.54-.84.7-1.32.16-.49.24-.98.24-1.49,0-.54-.08-1.05-.25-1.54-.17-.49-.41-.92-.73-1.31-.32-.39-.7-.69-1.13-.91-.44-.22-.93-.33-1.47-.33-.58,0-1.09.12-1.53.35-.44.23-.81.54-1.12.94-.31.39-.54.83-.7,1.32-.16.49-.24.98-.24,1.49"/>
  <polygon class="cls-2" points="331.11 88.12 331.11 76.86 332.9 76.86 332.9 86.55 338.93 86.55 338.93 88.12 331.11 88.12"/>
</svg>