<?xml version="1.0" encoding="UTF-8"?>
<svg id="Capa_1" data-name="Capa 1" xmlns="http://www.w3.org/2000/svg" viewBox="0 0 523.23 453.69">
  <defs>
    <style>
      .cls-1 {
        fill: #ff7621;
      }

      .cls-1, .cls-2 {
        stroke-width: 0px;
      }

      .cls-2 {
        fill: #00274e;
      }
    </style>
  </defs>
  <path class="cls-2" d="m426.08,420.39H56.67c-11.61,0-21.02-9.41-21.02-21.02V90.03c0-11.61,9.41-21.02,21.02-21.02h409.89c11.61,0,21.02,9.41,21.02,21.02v268.86l-61.5,61.5Z"/>
  <path class="cls-1" d="m103.1,33.3c17.43,0,31.61,14.18,31.61,31.61v4.07h-7.09v-4.07c0-13.52-11-24.52-24.52-24.52s-24.52,11-24.52,24.52v50.82c0,7.06,5.74,12.8,12.8,12.8h3.13c7.06,0,12.8-5.74,12.8-12.8v-36.58c0-1.96,1.59-3.54,3.54-3.54,1.96,0,3.54,1.59,3.54,3.54v36.58c0,10.97-8.92,19.89-19.89,19.89h-3.13c-10.97,0-19.89-8.92-19.89-19.89v-50.82c0-17.43,14.18-31.61,31.61-31.61Z"/>
  <path class="cls-1" d="m426.08,420.39v-40.48c0-11.61,9.41-21.02,21.02-21.02h40.48l-61.5,61.5Z"/>
</svg>