<?xml version="1.0" encoding="UTF-8" standalone="no"?>
<svg
   id="Capa_1"
   data-name="Capa 1"
   version="1.1"
   xmlns="http://www.w3.org/2000/svg"
   xmlns:svg="http://www.w3.org/2000/svg">
  <defs
     id="defs1">
    <rect
       x="110.75208"
       y="161.91167"
       width="215.85278"
       height="66.761787"
       id="rect4" />
    <rect
       x="117.4984"
       y="128.18008"
       width="100"
       height="100"
       id="rect3" />
    <style
       id="style1">
      .cls-1 {
        fill: #ff7621;
      }

      .cls-1, .cls-2 {
        stroke-width: 0px;
      }

      .cls-2 {
        fill: #00274e;
      }
    </style>
  </defs>
  <path
     class="cls-2"
     d="M 426.08,420.39 H 56.67 c -11.61,0 -21.02,-9.41 -21.02,-21.02 V 90.03 c 0,-11.61 9.41,-21.02 21.02,-21.02 h 409.89 c 11.61,0 21.02,9.41 21.02,21.02 v 268.86 z"
     id="path1" />
  <path
     class="cls-1"
     d="m 103.1,33.3 c 17.43,0 31.61,14.18 31.61,31.61 v 4.07 h -7.09 v -4.07 c 0,-13.52 -11,-24.52 -24.52,-24.52 -13.52,0 -24.52,11 -24.52,24.52 v 50.82 c 0,7.06 5.74,12.8 12.8,12.8 h 3.13 c 7.06,0 12.8,-5.74 12.8,-12.8 V 79.15 c 0,-1.96 1.59,-3.54 3.54,-3.54 1.96,0 3.54,1.59 3.54,3.54 v 36.58 c 0,10.97 -8.92,19.89 -19.89,19.89 h -3.13 c -10.97,0 -19.89,-8.92 -19.89,-19.89 V 64.91 c 0,-17.43 14.18,-31.61 31.61,-31.61 z"
     id="path2" />
  <path
     class="cls-1"
     d="m 426.08,420.39 v -40.48 c 0,-11.61 9.41,-21.02 21.02,-21.02 h 40.48 z"
     id="path3" />
  <text
     xml:space="preserve"
     id="text4"
     style="font-style:normal;font-variant:normal;font-weight:bold;font-stretch:normal;font-size:18.4318px;font-family:'Nirmala UI';-inkscape-font-specification:'Nirmala UI, Bold';font-variant-ligatures:normal;font-variant-caps:normal;font-variant-numeric:normal;font-variant-east-asian:normal;text-align:center;writing-mode:lr-tb;direction:ltr;white-space:pre;shape-inside:url(#rect4);shape-padding:1.12439;display:inline;fill:#ffffff;fill-opacity:1;stroke-width:1.2656;stroke-dasharray:none"
     transform="matrix(1.4779604,0,0,1.5124434,-54.763609,10.478331)"
     x="112.27148"
     y="0"><tspan
       x="138.41758"
       y="179.63964"
       id="tspan1">(3 hrs a la semana 
</tspan><tspan
       x="170.11974"
       y="202.67938"
       id="tspan2">o sabatino)</tspan></text>
  <text
     xml:space="preserve"
     id="text3"
     style="font-style:normal;font-variant:normal;font-weight:bold;font-stretch:normal;font-size:48px;font-family:'Nirmala UI';-inkscape-font-specification:'Nirmala UI, Bold';font-variant-ligatures:normal;font-variant-caps:normal;font-variant-numeric:normal;font-variant-east-asian:normal;text-align:center;writing-mode:lr-tb;direction:ltr;white-space:pre;shape-inside:url(#rect3);shape-padding:0.562193;display:inline;fill:#000000;stroke-width:0.999924;stroke-dasharray:none"
     transform="matrix(0.97068611,0,0,0.93629688,31.390076,31.668616)"
     x="171.14062"
     y="0"><tspan
       x="143.11719"
       y="171.9784"
       id="tspan5"><tspan
         style="fill:#fd752d"
         id="tspan4">12 Horas </tspan></tspan><tspan
       x="125.58594"
       y="231.9784"
       id="tspan7"><tspan
         style="fill:#fd752d"
         id="tspan6">mensuales</tspan></tspan></text>
</svg>
