<?xml version="1.0" encoding="UTF-8"?>
<svg id="Capa_1" data-name="Capa 1" xmlns="http://www.w3.org/2000/svg" viewBox="0 0 395.19 464.59">
  <defs>
    <style>
      .cls-1 {
        fill: #ff7621;
      }

      .cls-1, .cls-2, .cls-3 {
        stroke-width: 0px;
      }

      .cls-2 {
        fill: #00274e;
      }

      .cls-3 {
        fill: #fff;
      }
    </style>
  </defs>
  <g>
    <circle class="cls-1" cx="178.92" cy="310.06" r="142.94"/>
    <circle class="cls-2" cx="291.73" cy="349.6" r="4.08"/>
    <circle class="cls-2" cx="254.22" cy="208.76" r="4.08"/>
    <circle class="cls-2" cx="269.63" cy="221.72" r="4.08"/>
    <circle class="cls-2" cx="281.2" cy="375.39" r="4.08"/>
    <circle class="cls-2" cx="257.96" cy="385.45" r="4.08"/>
    <circle class="cls-2" cx="265.55" cy="356.63" r="4.08"/>
    <path class="cls-3" d="m234.26,125.22c.28,0,.57-.04.86-.13,1.48-.47,2.3-2.06,1.82-3.54l-17.18-53.68c-.48-1.48-2.06-2.3-3.54-1.82-1.48.47-2.3,2.06-1.82,3.54l17.18,53.68c.38,1.2,1.49,1.96,2.68,1.96Z"/>
    <path class="cls-3" d="m249.66,135.08c.07,0,.14,0,.2,0l80.4-5.77c1.55-.11,2.72-1.46,2.61-3.01-.11-1.55-1.45-2.71-3.01-2.61l-80.4,5.77c-1.55.11-2.72,1.46-2.61,3.01.11,1.48,1.34,2.61,2.81,2.61Z"/>
    <g>
      <path class="cls-2" d="m217.19,201.58c-2.13-5.17-2.17-4.85-8.52-7.16-4.79-1.75-5.72-6.23-1.58-7.58,6.17-1.99,5.67-2.05,5.66-6.52,0-3.43,5.78-4.55,9.78-1.88,5.9,3.92,5.65,3.62,12.01,3.13,4.8-.37,9.31,3.42,7.63,6.42-2.19,3.91-2.65,3.7,1.76,8.46,2.98,3.21-.03,6.66-5.07,5.84-7.5-1.2-7.08-.95-10.92,2.1-2.97,2.34-9.33.69-10.76-2.8h0Z"/>
      <path class="cls-2" d="m227.78,196.99l15.37-66.41-10.22-2.36c-1.89-.44-3.78.74-4.22,2.64-.44,1.89.74,3.78,2.64,4.22l3.36.78-12.19,52.69-3.36-.78c-1.89-.44-3.78.74-4.22,2.64-.44,1.89.74,3.78,2.64,4.22l10.22,2.37Z"/>
      <g>
        <path class="cls-2" d="m379.64,136l-144.59,10.37c-.79-16.4,30.82-27.06,70.42-30.02,39.93-2.95,73.8,14.96,74.17,19.65Z"/>
        <path class="cls-2" d="m309.18,166.38c-39.92,2.95-72.91-3.07-74.13-19.65,0-.12-.02-.24,0-.36l144.59-10.37c.34,4.72-30.52,27.43-70.46,30.38Z"/>
      </g>
      <g>
        <path class="cls-2" d="m190.55,11.63l43.76,138.2c-15.76,4.58-33.49-23.68-45.59-61.5-12.17-38.14-2.64-75.26,1.84-76.7Z"/>
        <path class="cls-2" d="m236.5,73.08c12.17,38.14,13.99,71.62-1.85,76.67-.11.04-.23.07-.35.08L190.55,11.63c4.51-1.43,33.78,23.3,45.95,61.45Z"/>
      </g>
    </g>
    <g>
      <g>
        <path class="cls-2" d="m83.43,350.76c1.93,0,3.5-1.55,3.52-3.48.02-1.94-1.54-3.53-3.48-3.56-7.57-.08-13.93-5.42-15.44-12.99-1.28-6.36,1.45-13.61,6.35-16.85,8.13-5.38,17.74,2.75,20.49,5.37,1.41,1.34,3.64,1.28,4.98-.12,1.34-1.41,1.28-3.64-.12-4.98-7.64-7.27-19.33-12.69-29.23-6.14-7.27,4.81-11.21,14.95-9.37,24.11,2.18,10.87,11.34,18.53,22.28,18.65h.04Z"/>
        <path class="cls-2" d="m107.4,379.8c11.87,0,24.37-4.23,33.25-16.1,1.16-1.56.85-3.76-.71-4.93-1.56-1.16-3.76-.85-4.93.71-11.59,15.49-30.95,15.2-44,10.25-1.81-.69-3.85.22-4.54,2.04-.69,1.82.22,3.85,2.04,4.54,5.57,2.11,12.12,3.48,18.88,3.48Z"/>
      </g>
      <g>
        <path class="cls-2" d="m148.5,367.92c-13.78-4.54-24.76-14.71-30.93-28.63-6.12-13.8-6.77-29.66-1.82-44.65,10.24-31.07,41.61-48.76,69.91-39.43,13.78,4.54,24.76,14.71,30.93,28.63,6.12,13.8,6.77,29.66,1.82,44.65-8.39,25.45-30.95,41.92-54.39,41.92-5.18,0-10.4-.8-15.52-2.49Zm-26.07-71.07c-4.39,13.33-3.83,27.39,1.57,39.59,5.36,12.08,14.84,20.89,26.7,24.8,4.4,1.45,8.88,2.14,13.34,2.14,20.48,0,40.27-14.6,47.69-37.09,4.39-13.33,3.83-27.39-1.57-39.59-5.36-12.08-14.84-20.89-26.7-24.8-4.4-1.45-8.88-2.14-13.34-2.14-20.48,0-40.27,14.6-47.69,37.09Z"/>
        <path class="cls-2" d="m59.35,320.62c2.63,0,5.27-.26,7.9-.79,1.91-.38,3.14-2.23,2.77-4.14-.38-1.91-2.24-3.14-4.14-2.77-4.49.89-8.98.86-13.36-.08-21.55-4.66-34.36-30.36-28.54-57.3,2.85-13.18,9.67-24.65,19.2-32.29,9.32-7.47,20.13-10.35,30.44-8.13,10.3,2.22,18.96,9.32,24.37,19.97,5.54,10.89,7.02,24.15,4.17,37.34-2.64,12.21-8.8,23.12-17.35,30.72-1.02.91-2.09,1.78-3.17,2.58-1.56,1.16-1.89,3.36-.73,4.93,1.16,1.56,3.37,1.89,4.93.73,1.24-.93,2.47-1.92,3.65-2.97,9.66-8.59,16.6-20.84,19.55-34.5,3.19-14.76,1.49-29.68-4.77-42.01-6.39-12.58-16.75-20.98-29.16-23.66-12.41-2.69-25.31.7-36.32,9.52-10.8,8.65-18.5,21.54-21.68,36.3-6.64,30.73,8.59,60.19,33.93,65.67,2.74.59,5.52.89,8.32.89Z"/>
        <path class="cls-2" d="m119.39,295.34c.27,0,.54-.03.82-.1,1.89-.45,3.05-2.34,2.61-4.22-.22-.95-2.38-9.39-8.99-12.21-2.51-1.07-6.63-1.69-12,1.47-1.67.99-2.23,3.14-1.25,4.82.99,1.67,3.14,2.23,4.82,1.25,3.41-2.01,5.09-1.3,5.65-1.06,2.85,1.2,4.55,5.84,4.92,7.36.39,1.61,1.83,2.7,3.42,2.7Z"/>
      </g>
      <path class="cls-2" d="m154.79,322.05c.39,0,.79-.02,1.18-.05,7-.56,13.15-5.76,16.46-13.91.73-1.8-.14-3.85-1.94-4.59-1.8-.73-3.85.14-4.59,1.94-2.29,5.63-6.21,9.2-10.5,9.54-2.62.22-4.93-.88-6.16-2.91-1.94-3.19-1.1-8.13,2.29-13.55,1.03-1.65.53-3.82-1.11-4.85-1.64-1.03-3.82-.53-4.85,1.11-4.86,7.76-5.72,15.39-2.35,20.94,2.41,3.97,6.76,6.32,11.56,6.32Z"/>
      <path class="cls-2" d="m70.78,290.64c.39,0,.79-.02,1.18-.05,7-.56,13.15-5.76,16.46-13.91.73-1.8-.14-3.85-1.94-4.59-1.8-.73-3.85.14-4.59,1.94-2.29,5.63-6.21,9.2-10.5,9.54-2.64.21-4.93-.88-6.16-2.91-1.94-3.19-1.1-8.13,2.3-13.55,1.03-1.65.53-3.82-1.11-4.85-1.64-1.03-3.82-.54-4.85,1.11-4.86,7.76-5.72,15.39-2.35,20.94,2.41,3.97,6.76,6.32,11.56,6.32Z"/>
    </g>
  </g>
  <polygon class="cls-3" points="114.96 234.81 134.13 233.8 145.83 249.02 150.79 230.48 168.88 224.05 152.78 213.6 152.26 194.41 137.34 206.49 118.93 201.06 125.82 218.98 114.96 234.81"/>
</svg>