<?xml version="1.0" encoding="UTF-8"?>
<svg id="Capa_1" data-name="Capa 1" xmlns="http://www.w3.org/2000/svg" viewBox="0 0 780.05 923.09">
  <defs>
    <style>
      .tangerino-grande-1 {
        fill: #ff7621;
      }

      .tangerino-grande-1, .tangerino-grande-2, .tangerino-grande-3 {
        stroke-width: 0px;
      }

      .tangerino-grande-2 {
        fill: #00274e;
      }

      .tangerino-grande-3 {
        fill: #fff;
      }
    </style>
  </defs>
  <g>
    <circle class="tangerino-grande-1" cx="427.51" cy="617.65" r="286.94"/>
    <circle class="tangerino-grande-2" cx="201.05" cy="697.02" r="8.2"/>
    <circle class="tangerino-grande-2" cx="276.35" cy="414.3" r="8.2"/>
    <circle class="tangerino-grande-2" cx="245.42" cy="440.31" r="8.2"/>
    <circle class="tangerino-grande-2" cx="222.19" cy="748.8" r="8.2"/>
    <circle class="tangerino-grande-2" cx="268.84" cy="768.99" r="8.2"/>
    <circle class="tangerino-grande-2" cx="253.62" cy="711.13" r="8.2"/>
    <path class="tangerino-grande-3" d="m316.43,246.61c-.57,0-1.15-.09-1.72-.27-2.97-.95-4.61-4.13-3.66-7.11l34.48-107.76c.95-2.97,4.13-4.62,7.11-3.66,2.97.95,4.61,4.13,3.66,7.11l-34.48,107.76c-.77,2.4-2.99,3.93-5.38,3.93Z"/>
    <path class="tangerino-grande-3" d="m285.51,266.4c-.14,0-.27,0-.41-.01l-161.4-11.58c-3.11-.22-5.46-2.93-5.23-6.04.23-3.11,2.92-5.44,6.04-5.23l161.4,11.58c3.11.22,5.46,2.93,5.23,6.04-.22,2.98-2.7,5.25-5.63,5.25Z"/>
    <g>
      <path class="tangerino-grande-2" d="m350.68,399.89c4.28-10.37,4.36-9.73,17.09-14.38,9.62-3.52,11.49-12.5,3.17-15.22-12.39-4-11.38-4.11-11.37-13.09,0-6.89-11.6-9.13-19.64-3.78-11.84,7.87-11.34,7.27-24.1,6.28-9.63-.74-18.68,6.87-15.32,12.88,4.4,7.85,5.32,7.43-3.52,16.98-5.98,6.44.05,13.36,10.18,11.73,15.05-2.41,14.21-1.91,21.93,4.22,5.95,4.71,18.72,1.39,21.59-5.62h0Z"/>
      <path class="tangerino-grande-2" d="m329.42,390.68l-30.85-133.32,20.51-4.75c3.79-.88,7.6,1.49,8.48,5.29.88,3.8-1.49,7.6-5.29,8.48l-6.74,1.56,24.48,105.78,6.74-1.56c3.79-.89,7.6,1.49,8.48,5.29.88,3.8-1.49,7.6-5.29,8.48l-20.51,4.75Z"/>
      <g>
        <path class="tangerino-grande-2" d="m24.58,268.24l290.25,20.82c1.59-32.92-61.88-54.31-141.36-60.26-80.16-5.93-148.15,30.02-148.88,39.44Z"/>
        <path class="tangerino-grande-2" d="m166.02,329.23c80.14,5.93,146.36-6.17,148.81-39.45.02-.24.03-.48,0-.72l-290.25-20.82c-.68,9.48,61.28,55.06,141.44,60.99Z"/>
      </g>
      <g>
        <path class="tangerino-grande-2" d="m404.17,18.59l-87.84,277.42c31.65,9.2,67.23-47.54,91.52-123.45,24.44-76.57,5.3-151.08-3.69-153.98Z"/>
        <path class="tangerino-grande-2" d="m311.92,141.95c-24.43,76.56-28.08,143.76,3.72,153.91.22.07.46.15.69.16L404.17,18.59c-9.06-2.86-67.81,46.77-92.25,123.35Z"/>
      </g>
    </g>
    <g>
      <g>
        <path class="tangerino-grande-2" d="m619.2,699.35c-3.87,0-7.02-3.12-7.06-6.99-.04-3.9,3.09-7.1,6.99-7.14,15.21-.16,27.95-10.88,31-26.08,2.56-12.77-2.92-27.32-12.75-33.82-16.31-10.8-35.61,5.52-41.14,10.78-2.83,2.69-7.3,2.58-9.99-.25-2.69-2.83-2.58-7.3.25-9.99,15.34-14.59,38.81-25.48,58.68-12.33,14.59,9.65,22.49,30.01,18.81,48.39-4.38,21.81-22.76,37.21-44.72,37.43h-.07Z"/>
        <path class="tangerino-grande-2" d="m571.08,757.66c-23.84,0-48.93-8.49-66.75-32.31-2.34-3.12-1.7-7.55,1.43-9.89,3.12-2.34,7.55-1.7,9.89,1.43,23.27,31.1,62.13,30.52,88.33,20.57,3.64-1.39,7.73.45,9.11,4.1,1.39,3.65-.45,7.73-4.1,9.11-11.17,4.24-24.34,6.99-37.91,6.99Z"/>
      </g>
      <g>
        <path class="tangerino-grande-2" d="m457.43,738.8c-47.06,0-92.34-33.06-109.18-84.15-9.92-30.1-8.62-61.92,3.66-89.63,12.39-27.95,34.44-48.36,62.1-57.47,56.81-18.74,119.78,16.77,140.34,79.15,9.92,30.09,8.62,61.92-3.66,89.63-12.39,27.95-34.44,48.36-62.1,57.47-10.28,3.39-20.76,5-31.16,5Zm-12.23-222.13c-8.94,0-17.94,1.39-26.78,4.3-23.82,7.85-42.85,25.53-53.6,49.78-10.86,24.49-11.98,52.72-3.16,79.47,14.88,45.15,54.62,74.45,95.72,74.46,8.94,0,17.94-1.39,26.78-4.3,23.82-7.85,42.85-25.53,53.6-49.78,10.86-24.49,11.98-52.72,3.16-79.47-14.88-45.15-54.62-74.46-95.72-74.46Z"/>
        <path class="tangerino-grande-2" d="m667.53,638.85c-5.27,0-10.57-.53-15.86-1.58-3.83-.76-6.31-4.48-5.55-8.31.76-3.83,4.49-6.3,8.31-5.55,9.01,1.79,18.03,1.74,26.82-.16,43.27-9.35,68.97-60.94,57.29-115.02-5.71-26.46-19.4-49.48-38.55-64.82-18.72-14.99-40.41-20.79-61.1-16.32-20.68,4.47-38.06,18.7-48.92,40.08-11.11,21.87-14.08,48.49-8.37,74.95,5.29,24.51,17.66,46.42,34.83,61.68,2.06,1.83,4.2,3.57,6.36,5.18,3.13,2.33,3.78,6.75,1.46,9.89-2.33,3.13-6.76,3.78-9.89,1.46-2.5-1.86-4.96-3.86-7.33-5.96-19.39-17.23-33.33-41.83-39.25-69.26-6.4-29.62-2.99-59.57,9.58-84.33,12.83-25.24,33.61-42.11,58.54-47.49,24.91-5.4,50.82,1.4,72.91,19.11,21.67,17.36,37.13,43.24,43.52,72.87,13.32,61.7-17.24,120.83-68.12,131.82-5.51,1.19-11.09,1.79-16.7,1.79Z"/>
        <path class="tangerino-grande-2" d="m547,588.09c-.54,0-1.09-.06-1.64-.2-3.78-.91-6.13-4.69-5.24-8.48.45-1.91,4.78-18.84,18.05-24.5,5.04-2.15,13.31-3.39,24.08,2.94,3.36,1.98,4.48,6.31,2.5,9.67-1.98,3.36-6.31,4.48-9.67,2.5-6.85-4.04-10.23-2.61-11.34-2.14-5.71,2.42-9.12,11.71-9.87,14.78-.79,3.23-3.68,5.41-6.87,5.41Z"/>
      </g>
      <path class="tangerino-grande-2" d="m475.95,641.72c-.79,0-1.58-.03-2.37-.09-14.04-1.13-26.39-11.56-33.04-27.92-1.47-3.62.27-7.74,3.89-9.2,3.62-1.47,7.74.28,9.2,3.89,4.59,11.3,12.46,18.46,21.07,19.15,5.27.44,9.89-1.76,12.36-5.84,3.89-6.41,2.21-16.32-4.61-27.2-2.07-3.31-1.07-7.67,2.24-9.74,3.3-2.07,7.66-1.07,9.74,2.24,9.76,15.57,11.48,30.89,4.71,42.04-4.83,7.96-13.57,12.69-23.2,12.69Z"/>
      <path class="tangerino-grande-2" d="m644.59,578.67c-.78,0-1.58-.03-2.37-.1-14.04-1.12-26.39-11.56-33.04-27.92-1.47-3.62.27-7.74,3.89-9.2,3.62-1.47,7.74.27,9.2,3.89,4.59,11.3,12.46,18.46,21.07,19.15,5.3.41,9.89-1.76,12.36-5.84,3.89-6.41,2.21-16.32-4.61-27.2-2.07-3.31-1.07-7.67,2.24-9.74,3.3-2.08,7.66-1.08,9.74,2.24,9.76,15.57,11.48,30.89,4.72,42.03-4.83,7.96-13.57,12.69-23.2,12.69Z"/>
    </g>
  </g>
  <polygon class="tangerino-grande-3" points="555.91 466.59 517.43 464.57 493.94 495.12 483.98 457.89 447.66 445 479.98 424.02 481.02 385.5 510.97 409.75 547.93 398.84 534.11 434.81 555.91 466.59"/>
</svg>