<?xml version="1.0" encoding="UTF-8"?>
<svg id="Capa_1" data-name="Capa 1" xmlns="http://www.w3.org/2000/svg" viewBox="0 0 154.14 151.43">
  <defs>
    <style>
      .wha-1 {
        fill: #00274e;
      }

      .wha-1, .wha-2 {
        stroke-width: 0px;
      }

      .wha-2 {
        fill: #fd752d;
      }
    </style>
  </defs>
  <circle class="wha-2" cx="77.07" cy="75.71" r="66.79"/>
  <g>
    <path class="wha-1" d="m77.11,108.22c-5.32-.06-10.37-1.26-15.1-3.71-.45-.23-.84-.25-1.31-.13-5.3,1.4-10.61,2.8-15.91,4.19-.24.06-.54.24-.72.09-.25-.21-.02-.52.05-.77,1.4-5.14,2.8-10.27,4.22-15.41.16-.57.11-1.04-.18-1.57-2.36-4.37-3.7-9.02-3.93-13.99-.41-8.87,2.29-16.68,8.08-23.38,4.78-5.54,10.79-9.15,17.96-10.61,10.52-2.14,20.01.22,28.26,7.13,5.92,4.96,9.67,11.31,11.04,18.92,1.97,10.9-.84,20.54-8.31,28.71-5.25,5.74-11.84,9.07-19.53,10.21-1.53.23-3.07.36-4.62.33Zm.38-5.73c.7.05,1.8-.05,2.9-.19,6.66-.85,12.33-3.7,16.86-8.67,5.52-6.07,7.84-13.25,7.05-21.39-.46-4.75-2.15-9.09-4.95-12.96-6.54-9.03-17.33-13.03-27.78-10.77-8.59,1.86-14.9,6.84-18.87,14.68-2.38,4.68-3.2,9.69-2.66,14.91.45,4.29,1.84,8.27,4.2,11.89.35.54.45,1.02.26,1.67-.79,2.72-1.52,5.46-2.26,8.2-.23.86-.19.91.66.69,2.86-.74,5.71-1.48,8.56-2.25.59-.16,1.05-.07,1.56.24,4.32,2.61,9.01,3.93,14.48,3.97Z"/>
    <path class="wha-1" d="m85.76,91.06c-2.43.08-4.6-.88-6.78-1.72-5.87-2.27-10.28-6.39-14.05-11.29-1.51-1.96-2.93-3.97-3.79-6.33-1.45-3.99-.94-7.6,2.1-10.73.76-.78,1.65-1.15,2.72-1.13.55.01,1.1.06,1.66.1.6.05.95.47,1.17.96.56,1.24,1.07,2.5,1.6,3.75.38.89.73,1.8,1.13,2.68.35.77.3,1.47-.21,2.14-.61.81-1.2,1.64-1.85,2.42-.46.55-.52,1.05-.14,1.69,2.67,4.47,6.37,7.72,11.23,9.63.64.25,1.15.15,1.61-.38.82-.97,1.64-1.93,2.4-2.95.65-.87,1.02-.99,2.01-.58,2.28.95,4.47,2.09,6.68,3.19.71.35.78.97.71,1.65-.41,4.08-3.43,6.83-7.56,6.9-.21,0-.42,0-.62,0Z"/>
  </g>
</svg>